REM MD5 18b13f6ec8f78650ad4225988e13d045
FILE "Sled Storm & Medal of Honor Demo CD (USA).bin" BINARY
  TRACK 01 MODE2/2352
    INDEX 01 00:00:00
  TRACK 02 AUDIO
    INDEX 00 06:21:32
    INDEX 01 06:23:32
  TRACK 03 AUDIO
    INDEX 00 11:04:50
    INDEX 01 11:06:50
  TRACK 04 AUDIO
    INDEX 00 15:19:41
    INDEX 01 15:21:41
REM LEADOUT 15:27:37
